<svg width="183" height="105" viewBox="0 0 183 105" fill="none" xmlns="http://www.w3.org/2000/svg">
<g clip-path="url(#clip0_3_1421)">
<path d="M51.6613 0.774468V92.9362L0.586727 78.4298V13.7915L51.6613 0.774468ZM52.248 0L0 13.3149V78.9064L52.2187 93.7106H52.248V0Z" fill="#C1976B"/>
<path d="M52.2187 93.7106L0 78.9064V104.017L52.2187 93.7106Z" fill="#C1976B"/>
<path d="M77.5066 73.5745H89.5639H89.9746H96.3405V60.617H92.7615V70.7149H89.9746H89.5639H87.1876V54.1532H83.5792V70.7149H77.9467C75.4531 70.7149 73.6929 70.2681 72.6955 69.3745C71.698 68.4808 71.1993 67.0213 71.1993 65.0255C71.1993 63.3277 71.522 61.8085 72.1381 60.4681L68.295 61.0936C67.8256 62.4043 67.5909 63.834 67.5909 65.4128C67.5909 68.0638 68.3537 70.0894 69.9085 71.4894C71.434 72.8894 73.9863 73.5745 77.5066 73.5745Z" fill="#21346A"/>
<path d="M81.4079 60.3489H79.7651C78.4743 60.3489 77.7995 60.0212 77.7995 59.3361C77.7995 58.7106 78.2396 58.4127 79.1197 58.4127C79.5597 58.4127 80.0291 58.4723 80.5865 58.5915L80.9385 56.6553C80.1758 56.5361 79.6477 56.4766 79.325 56.4766C78.0049 56.4766 77.0075 56.7446 76.3327 57.3106C75.658 57.8766 75.3353 58.5319 75.3353 59.3063C75.3353 59.8723 75.57 60.2893 76.01 60.5276C75.5113 60.4085 74.9539 60.3489 74.3672 60.3489V62.3446H81.3786V60.3489H81.4079Z" fill="#21346A"/>
<path d="M92.2632 58.7405C92.7619 58.7405 93.202 58.5618 93.5247 58.2043C93.8473 57.8469 94.0234 57.4298 94.0234 56.9235C94.0234 56.4171 93.8474 55.9703 93.4953 55.6426C93.1433 55.315 92.7326 55.1362 92.2339 55.1362C91.7351 55.1362 91.3244 55.315 90.9724 55.6724C90.6204 56.0298 90.4443 56.4469 90.4443 56.9235C90.4443 57.4298 90.6204 57.8469 90.9431 58.2043C91.3244 58.5618 91.7645 58.7405 92.2632 58.7405Z" fill="#21346A"/>
<path d="M96.6049 58.7405C97.1036 58.7405 97.5143 58.5618 97.8664 58.2043C98.2184 57.8469 98.3944 57.4298 98.3944 56.9532C98.3944 56.4469 98.2184 56.0298 97.8664 55.6724C97.5143 55.315 97.1036 55.1362 96.6342 55.1362C96.1355 55.1362 95.7248 55.315 95.3728 55.6724C95.0207 56.0298 94.8447 56.4469 94.8447 56.9235C94.8447 57.4298 95.0207 57.8469 95.3728 58.2043C95.6955 58.5618 96.1062 58.7405 96.6049 58.7405Z" fill="#21346A"/>
<path d="M104.555 54.1532H100.976V73.5745H104.555V54.1532Z" fill="#21346A"/>
<path d="M110.657 80.0084C111.566 79.6212 112.27 79.1148 112.74 78.4297C113.209 77.7446 113.532 77.0297 113.737 76.285C113.913 75.5403 114.031 74.6765 114.031 73.6935V60.6169H110.452V73.8723C110.452 75.2723 110.217 76.285 109.718 76.851C109.219 77.4169 108.486 77.7148 107.518 77.7148C106.785 77.7148 106.051 77.5957 105.318 77.3872L105.054 80.2765C105.787 80.4552 106.55 80.5446 107.342 80.5446C108.603 80.5744 109.748 80.3957 110.657 80.0084Z" fill="#21346A"/>
<path d="M163.315 58.7405C163.814 58.7405 164.224 58.5618 164.576 58.2043C164.928 57.8469 165.104 57.4298 165.104 56.9532C165.104 56.4469 164.928 56.0298 164.576 55.6724C164.224 55.315 163.814 55.1362 163.344 55.1362C162.845 55.1362 162.435 55.315 162.083 55.6724C161.731 56.0298 161.555 56.4469 161.555 56.9235C161.555 57.4298 161.731 57.8469 162.083 58.2043C162.405 58.5618 162.816 58.7405 163.315 58.7405Z" fill="#21346A"/>
<path d="M158.973 58.7405C159.472 58.7405 159.912 58.5618 160.235 58.2043C160.557 57.8469 160.733 57.4298 160.733 56.9235C160.733 56.4171 160.557 55.9703 160.205 55.6426C159.853 55.315 159.443 55.1362 158.944 55.1362C158.445 55.1362 158.034 55.315 157.682 55.6724C157.33 56.0298 157.154 56.4469 157.154 56.9235C157.154 57.4298 157.33 57.8469 157.653 58.2043C158.034 58.5618 158.474 58.7405 158.973 58.7405Z" fill="#21346A"/>
<path d="M180.888 70.7149C178.834 70.7149 177.279 70.3277 176.253 69.583C175.226 68.8383 174.698 67.8255 174.698 66.6043C174.698 65.5617 175.021 64.6979 175.637 64.0723C176.282 63.417 177.103 63.1191 178.101 63.1191C179.157 63.1191 180.096 63.3277 180.917 63.6851L181.533 60.7957L181.093 60.6468C180.8 60.5575 180.389 60.4681 179.832 60.3787C179.274 60.2894 178.717 60.2596 178.189 60.2596C175.901 60.2596 174.17 60.8553 172.938 62.0766C171.706 63.2681 171.119 64.7872 171.119 66.6043C171.119 67.4979 171.324 68.3319 171.706 69.0468C172.087 69.7915 172.586 70.3277 173.202 70.7149H169.388H168.977H168.215C167.569 70.7149 166.894 70.7745 166.132 70.8638C166.63 70.4468 167.041 69.8511 167.305 69.0766C167.569 68.3021 167.716 67.5277 167.716 66.6936C167.716 64.5489 167.158 62.9702 166.044 61.8979C164.929 60.8255 163.403 60.2894 161.408 60.2894C159.355 60.2894 157.712 60.9447 156.421 62.2255C155.131 63.5064 154.485 65.1447 154.485 67.1702C154.485 68.7787 154.896 70.0298 155.747 70.8936L154.074 70.7447H152.842H152.432H149.967H149.557H147.092H146.682H144.217H143.807H141.342H140.932H138.467H138.057H135.593H135.182H132.718H132.307H129.843H129.432H126.968H126.557H124.093H123.682H121.306V54.183H117.727V73.5745H123.711H124.122H126.586H126.997H129.461H129.872H132.336H132.747H135.211H135.622H138.086H138.497H140.961H141.372H143.836H144.247H146.711H147.122H149.586H149.997H152.461H152.872H169.007H169.417H183.029V70.7149H180.888ZM163.257 69.7021C162.699 70.3574 161.966 70.6851 161.056 70.6851C159.062 70.6851 158.064 69.4043 158.064 66.8128C158.064 65.5915 158.357 64.6681 158.944 64.0426C159.531 63.417 160.264 63.1191 161.115 63.1191C163.11 63.1191 164.107 64.3702 164.107 66.8723C164.107 68.1234 163.814 69.0468 163.257 69.7021Z" fill="#21346A"/>
<path d="M73.3118 85.519L67.3271 103.123H70.7008L71.9036 99.519H78.475L79.6484 103.123H83.3448L77.2428 85.519H73.3118ZM72.6957 96.8382L74.4559 91.5956C74.6319 91.0297 74.8372 90.2254 75.1306 89.1829H75.16C75.3066 89.868 75.5413 90.6722 75.864 91.5956L77.6242 96.8382H72.6957Z" fill="#21346A"/>
<path d="M98.9514 101.783C98.0419 101.545 97.4259 101.455 97.1032 101.455C98.218 100.889 99.0981 99.9362 99.7141 98.6553C100.36 97.3745 100.653 95.8255 100.653 94.0681C100.653 91.2979 99.9781 89.1532 98.658 87.5745C97.3085 86.0255 95.3723 85.2511 92.7614 85.2511C90.3558 85.2511 88.361 86.1149 86.7181 87.8128C85.1046 89.5106 84.2832 91.7745 84.2832 94.634C84.2832 97.4043 84.9579 99.5489 86.2781 101.128C87.6275 102.677 89.5637 103.451 92.1453 103.451H92.8788C93.6122 103.451 94.3456 103.57 95.0203 103.779C95.695 103.987 96.3111 104.196 96.7511 104.434C97.1912 104.672 97.8366 104.821 98.6873 104.97C99.5088 105.089 100.418 105.089 101.416 104.911V102.021C100.682 102.051 99.8315 101.991 98.9514 101.783ZM95.783 98.7745C94.903 99.817 93.8175 100.353 92.468 100.353C90.9426 100.353 89.7984 99.817 89.0357 98.7149C88.2729 97.6426 87.8916 96.1234 87.8916 94.1872C87.8916 92.3404 88.3316 90.9106 89.1824 89.8681C90.0331 88.8255 91.1479 88.2894 92.4974 88.2894C94.0229 88.2894 95.167 88.8255 95.9297 89.9277C96.6925 91.0298 97.0738 92.5192 97.0738 94.4255C97.1032 96.3021 96.6631 97.7319 95.783 98.7745Z" fill="#21346A"/>
<path d="M108.193 85.519L102.208 103.123H105.582L106.784 99.519H113.356L114.529 103.123H118.226L112.124 85.519H108.193ZM107.577 96.8382L109.337 91.5956C109.513 91.0297 109.718 90.2254 110.011 89.1829H110.041C110.187 89.868 110.422 90.6722 110.745 91.5956L112.505 96.8382H107.577Z" fill="#21346A"/>
<path d="M127.584 95.2894C128.816 95.0809 129.843 94.5447 130.635 93.6213C131.427 92.7277 131.837 91.6553 131.837 90.3745C131.837 87.0681 129.755 85.4298 125.53 85.4298C123.418 85.4298 121.775 85.4596 120.543 85.5489V103.153H123.887V95.8851H124.181L128.845 103.153H132.982L128.962 97.2255C128.698 96.8085 128.229 96.1532 127.584 95.2894ZM125.119 93.4128C124.621 93.4128 124.21 93.383 123.917 93.3532V88.2596C124.269 88.2 124.709 88.1702 125.237 88.1702C127.32 88.1702 128.376 89.0043 128.376 90.7021C128.376 91.5064 128.082 92.1617 127.496 92.6681C126.909 93.1745 126.117 93.4128 125.119 93.4128Z" fill="#21346A"/>
<path d="M139.553 85.5191L133.568 103.123H136.942L138.145 99.5191H144.716L145.89 103.123H149.615L143.513 85.5191H139.553ZM138.937 96.8383L140.697 91.5957C140.873 91.0298 141.078 90.2255 141.372 89.183H141.401C141.548 89.8681 141.783 90.6723 142.105 91.5957L143.865 96.8383H138.937Z" fill="#21346A"/>
<path d="M148.647 88.4382H153.136V103.123H156.48V88.4382H160.969V85.519H148.647V88.4382Z" fill="#21346A"/>
<path d="M167.011 85.519H163.667V103.123H167.011V85.519Z" fill="#21346A"/>
<path d="M179.04 100.264C175.666 100.264 173.994 98.268 173.994 94.3063C173.994 92.5191 174.405 91.0893 175.226 90.0169C176.048 88.9446 177.251 88.4084 178.835 88.4084C180.037 88.4084 181.152 88.6169 182.238 89.0339L182.707 85.9063C181.534 85.5488 180.302 85.3701 179.011 85.3701C176.194 85.3701 174.024 86.2339 172.557 87.9616C171.061 89.6893 170.327 92.0127 170.327 94.8722C170.327 96.0339 170.474 97.0765 170.738 98.0595C171.002 99.0425 171.442 99.9361 172.058 100.74C172.645 101.545 173.495 102.17 174.552 102.647C175.608 103.094 176.898 103.332 178.336 103.332C179.949 103.332 181.446 103.064 182.854 102.528L182.326 99.5191C181.328 100.025 180.243 100.264 179.04 100.264Z" fill="#21346A"/>
</g>
<defs>
<clipPath id="clip0_3_1421">
<rect width="183" height="105" fill="white"/>
</clipPath>
</defs>
</svg>
